<svg width="24" height="24" viewBox="0 0 24 24" fill="none" xmlns="http://www.w3.org/2000/svg">
<g clip-path="url(#clip0_8_2)">
<path fill-rule="evenodd" clip-rule="evenodd" d="M0 6C0 2.68629 2.68629 0 6 0H18C21.3137 0 24 2.68629 24 6V18C24 21.3137 21.3137 24 18 24H6C2.68629 24 0 21.3137 0 18V6ZM12 5.57143C12.7101 5.57143 13.2857 6.14707 13.2857 6.85714V10.7143H17.1429C17.8529 10.7143 18.4286 11.2899 18.4286 12C18.4286 12.7101 17.8529 13.2857 17.1429 13.2857H13.2857V17.1429C13.2857 17.8529 12.7101 18.4286 12 18.4286C11.2899 18.4286 10.7143 17.8529 10.7143 17.1429V13.2857H6.85714C6.14707 13.2857 5.57143 12.7101 5.57143 12C5.57143 11.2899 6.14707 10.7143 6.85714 10.7143H10.7143V6.85714C10.7143 6.14707 11.2899 5.57143 12 5.57143Z" fill="white"/>
</g>
<defs>
<clipPath id="clip0_8_2">
<rect width="24" height="24" fill="white"/>
</clipPath>
</defs>
</svg>
