<svg width="24" height="24" viewBox="0 0 24 24" fill="none" xmlns="http://www.w3.org/2000/svg">
<g clip-path="url(#clip0_4_11)">
<path d="M18.3686 -0.00167847C18.0261 -0.00167847 17.687 0.0667609 17.3712 0.199621C17.0575 0.331655 16.7731 0.524666 16.5345 0.76744L2.41255 14.8208C2.3077 14.9252 2.23164 15.0549 2.19177 15.1973L0.0317655 22.9116C-0.0517289 23.2097 0.032107 23.5298 0.251071 23.7489C0.470037 23.9678 0.79008 24.0516 1.08827 23.9681L8.80257 21.8081C8.94499 21.7682 9.07467 21.6921 9.17901 21.5873L23.2322 7.46554L23.2346 7.46322C23.4744 7.22465 23.6649 6.94107 23.795 6.62873C23.9256 6.31539 23.9928 5.97929 23.9928 5.63982C23.9928 5.30036 23.9256 4.96426 23.795 4.6509C23.6649 4.33856 23.4744 4.05497 23.2346 3.81641L23.2322 3.81411L20.2044 0.769232C19.9656 0.525615 19.6805 0.331979 19.3659 0.199621C19.0502 0.0667609 18.7111 -0.00167847 18.3686 -0.00167847Z" fill="white"/>
</g>
<defs>
<clipPath id="clip0_4_11">
<rect width="24" height="24" fill="white"/>
</clipPath>
</defs>
</svg>
