<svg width="24" height="24" viewBox="0 0 24 24" fill="none" xmlns="http://www.w3.org/2000/svg">
<path fill-rule="evenodd" clip-rule="evenodd" d="M11.22 1.71085C10.7653 1.71085 10.3293 1.89146 10.0078 2.21295C9.68633 2.53444 9.50572 2.97048 9.50572 3.42513C9.50572 3.87979 9.68633 4.31583 10.0078 4.63732C10.3293 4.95881 10.7653 5.13942 11.22 5.13942H15.8966C17.0805 5.16247 18.2081 5.64897 19.0372 6.49439C19.8664 7.33981 20.3308 8.47671 20.3308 9.66085C20.3308 10.845 19.8664 11.9819 19.0372 12.8273C18.2081 13.6727 17.0805 14.1592 15.8966 14.1823H8.25772V11.22C8.25764 10.881 8.15706 10.5496 7.96869 10.2678C7.78032 9.98593 7.51261 9.76626 7.19941 9.63654C6.88621 9.50682 6.54158 9.47288 6.20909 9.53899C5.8766 9.60511 5.57118 9.76832 5.33143 10.008L0.658287 14.6811C0.418319 14.9208 0.254502 15.226 0.187403 15.5584C0.120305 15.8909 0.152917 16.2357 0.281144 16.5497C0.365144 16.7537 0.488573 16.944 0.654859 17.1103L5.33143 21.7868C5.57118 22.0265 5.8766 22.1897 6.20909 22.2558C6.54158 22.322 6.88621 22.288 7.19941 22.1583C7.51261 22.0286 7.78032 21.8089 7.96869 21.5271C8.15706 21.2452 8.25764 20.9139 8.25772 20.5749V17.6108H15.8966C16.9504 17.6263 17.9968 17.4321 18.9749 17.0395C19.953 16.647 20.8433 16.0638 21.594 15.3241C22.3447 14.5843 22.9408 13.7027 23.3477 12.7305C23.7546 11.7582 23.9642 10.7148 23.9642 9.66085C23.9642 8.6069 23.7546 7.56347 23.3477 6.59124C22.9408 5.61901 22.3447 4.73738 21.594 3.99762C20.8433 3.25786 19.953 2.67473 18.9749 2.28215C17.9968 1.88957 16.9504 1.69537 15.8966 1.71085H11.22Z" fill="white"/>
</svg>
